<?xml version="1.0" encoding="UTF-8" standalone="no"?>
<!DOCTYPE svg PUBLIC "-//W3C//DTD SVG 1.1//EN"
 "http://www.w3.org/Graphics/SVG/1.1/DTD/svg11.dtd">
<!-- Generated by graphviz version 2.43.0 (0)
 -->
<!-- Title: G Pages: 1 -->
<svg width="79pt" height="188pt"
 viewBox="0.00 0.00 78.60 188.20" xmlns="http://www.w3.org/2000/svg" xmlns:xlink="http://www.w3.org/1999/xlink">
<g id="graph0" class="graph" transform="scale(1 1) rotate(0) translate(4 184.2)">
<title>G</title>
<polygon fill="white" stroke="transparent" points="-4,4 -4,-184.2 74.6,-184.2 74.6,4 -4,4"/>
<!-- x -->
<g id="node1" class="node">
<title>x</title>
<ellipse fill="white" stroke="black" cx="12.6" cy="-100.5" rx="3.6" ry="3.6"/>
<text text-anchor="middle" x="4.5" y="-107.9" font-family="Times-Roman" font-size="14.00">x</text>
</g>
<!-- v -->
<g id="node5" class="node">
<title>v</title>
<polygon fill="none" stroke="black" stroke-width="2" points="32.6,0 50.6,-32.25 14.6,-32.25 32.6,0"/>
<text text-anchor="middle" x="32.6" y="-17.8" font-family="Times-Roman" font-size="14.00">v</text>
</g>
<!-- x&#45;&gt;v -->
<g id="edge1" class="edge">
<title>x&#45;&gt;v</title>
<path fill="none" stroke="black" d="M13.27,-96.94C15.45,-88.52 22.55,-61.18 27.51,-42.08"/>
<polygon fill="black" stroke="black" points="30.94,-42.81 30.07,-32.25 24.17,-41.05 30.94,-42.81"/>
</g>
<!-- y -->
<g id="node2" class="node">
<title>y</title>
<ellipse fill="white" stroke="black" cx="39.6" cy="-161.6" rx="3.6" ry="3.6"/>
<text text-anchor="middle" x="31.5" y="-169" font-family="Times-Roman" font-size="14.00">y</text>
</g>
<!-- v1 -->
<g id="node4" class="node">
<title>v1</title>
<polygon fill="none" stroke="black" stroke-width="2" points="52.6,-79 70.6,-111.25 34.6,-111.25 52.6,-79"/>
<text text-anchor="middle" x="52.6" y="-96.8" font-family="Times-Roman" font-size="14.00">&amp;</text>
</g>
<!-- y&#45;&gt;v1 -->
<g id="edge2" class="edge">
<title>y&#45;&gt;v1</title>
<path fill="none" stroke="black" d="M40.23,-157.75C41.65,-151.27 45.24,-134.97 48.18,-121.57"/>
<polygon fill="black" stroke="black" points="51.63,-122.22 50.36,-111.7 44.79,-120.71 51.63,-122.22"/>
</g>
<!-- z -->
<g id="node3" class="node">
<title>z</title>
<ellipse fill="white" stroke="black" cx="64.6" cy="-161.6" rx="3.6" ry="3.6"/>
<text text-anchor="middle" x="57" y="-169" font-family="Times-Roman" font-size="14.00">z</text>
</g>
<!-- z&#45;&gt;v1 -->
<g id="edge3" class="edge">
<title>z&#45;&gt;v1</title>
<path fill="none" stroke="black" d="M64.02,-157.75C62.71,-151.27 59.4,-134.97 56.68,-121.57"/>
<polygon fill="black" stroke="black" points="60.09,-120.8 54.67,-111.7 53.23,-122.19 60.09,-120.8"/>
</g>
<!-- v1&#45;&gt;v -->
<g id="edge4" class="edge">
<title>v1&#45;&gt;v</title>
<path fill="none" stroke="black" d="M48.93,-85.38C45.8,-73.32 41.26,-55.84 37.76,-42.37"/>
<polygon fill="black" stroke="black" points="41.13,-41.4 35.22,-32.61 34.35,-43.16 41.13,-41.4"/>
</g>
</g>
</svg>
